<svg width="1739" height="1691" viewBox="0 0 1739 1691" fill="none" xmlns="http://www.w3.org/2000/svg">
<rect x="580" y="1187.11" width="57.9419" height="35" rx="17.5" transform="rotate(-42.4467 580 1187.11)" fill="#2563EB"/>
<rect x="605" y="1215.68" width="79.5357" height="35" rx="17.5" transform="rotate(-42.4467 605 1215.68)" fill="#2563EB"/>
<rect x="642" y="1235.38" width="70.2043" height="35" rx="17.5" transform="rotate(-42.4467 642 1235.38)" fill="#2563EB"/>
<rect x="676" y="1256.95" width="57.7081" height="35" rx="17.5" transform="rotate(-42.4467 676 1256.95)" fill="#2563EB"/>
<path d="M1534.5 1403.5V177.996L1705 9.99566C1719 -1.00439 1738.5 -11.5039 1738.5 28.4961V1225L1534.5 1403.5Z" fill="#2563EB"/>
<path d="M1104 939.996C1112 929.162 1127.9 915.796 1127.5 948.996V1603.5L1209.5 1691L1482 1452.5V332.996C1482 292.996 1451.5 249.796 1399.5 302.996L744.022 957.166L800.641 1012.92C803.88 1014.78 802.562 1016.38 807 1021L877.115 1088.23L917.999 1128.49L1104 939.996Z" fill="#2563EB"/>
<path d="M662 1033.5C629 1060.5 652.9 1116.1 714.5 1066.5L785.5 1013.5C790.337 1010.28 794.758 1009.55 800.641 1012.92L744.022 957.166L662 1033.5Z" fill="#2563EB"/>
<path d="M0 1452.5L270.5 1691L347 1607V946.496C345.4 921.296 365 923.996 379.5 939.996L604 1157.5C613.333 1150.17 628.3 1144.5 647.5 1164.5C662 1159 685 1166 688.5 1187.5C706.5 1187.5 717.5 1197 717.5 1215.5C731 1219.5 745.5 1233.1 739.5 1251.5L761 1278.5C779 1300 815.5 1283.5 802 1254L741 1180.5C736 1175.5 738.5 1168.5 746 1175.5L827.5 1264.5C851.5 1287 882 1253 862 1232L786 1156C781 1149.5 786 1147.5 790.5 1151.5L888.5 1241.5C917.5 1260 945.5 1225 924 1200L838 1128.49C833.5 1123 837 1120 842.5 1123L921.5 1189.5C934 1203.5 967.3 1187.7 950.5 1160.5L917.999 1128.49L917.5 1129L877.115 1088.23L800.641 1012.92C794.758 1009.55 790.337 1010.28 785.5 1013.5L714.5 1066.5C652.9 1116.1 629 1060.5 662 1033.5L744.022 957.166L64 287.496C32.8 262.296 8.33333 288.996 0 305.496V1452.5Z" fill="#F97316"/>
</svg>
