<svg width="53" height="54" viewBox="0 0 53 54" fill="none" xmlns="http://www.w3.org/2000/svg">
<path fill-rule="evenodd" clip-rule="evenodd" d="M13.8472 5.16401C12.0584 5.39809 11.1132 5.82871 10.4375 6.48901C9.76395 7.15151 9.32449 8.07901 9.08378 9.83021C8.83645 11.6344 8.83203 14.0238 8.83203 17.449V36.3744C9.70648 35.7773 10.6767 35.3344 11.7007 35.0648C12.8667 34.7579 14.227 34.7579 16.2211 34.7601H44.1654V17.4512C44.1654 14.0238 44.1609 11.6344 43.9136 9.83021C43.6729 8.07901 43.2334 7.15151 42.5599 6.48901C41.8842 5.82871 40.939 5.39809 39.1502 5.16401C37.3085 4.92109 34.8705 4.91667 31.3725 4.91667H21.6249C18.1269 4.91667 15.6889 4.92109 13.8472 5.16401ZM14.9248 15.064C14.9248 14.0746 15.7419 13.273 16.7511 13.273H36.2463C36.7254 13.2689 37.1866 13.4548 37.529 13.7901C37.8713 14.1254 38.0667 14.5826 38.0726 15.0618C38.0673 15.5413 37.8721 15.9991 37.5297 16.3348C37.1874 16.6706 36.7258 16.8568 36.2463 16.8527H16.7511C16.272 16.8568 15.8107 16.6709 15.4684 16.3356C15.1261 16.0004 14.9306 15.5431 14.9248 15.064ZM16.7511 21.6293C16.272 21.6252 15.8107 21.8112 15.4684 22.1464C15.1261 22.4817 14.9306 22.939 14.9248 23.4181C14.9248 24.4074 15.7419 25.209 16.7511 25.209H28.9345C29.414 25.2138 29.8758 25.0281 30.2186 24.6927C30.5614 24.3574 30.7572 23.8998 30.763 23.4203C30.7577 22.9404 30.5622 22.4822 30.2194 22.1464C29.8765 21.8106 29.4144 21.6246 28.9345 21.6293H16.7511Z" fill="white"/>
<path d="M16.5017 38.3398H44.1655C44.1589 40.8352 44.1191 42.699 43.916 44.1698C43.6753 45.921 43.2358 46.8485 42.5623 47.511C41.8865 48.1713 40.9413 48.6019 39.1526 48.836C37.3109 49.0789 34.8729 49.0833 31.3749 49.0833H21.6251C18.1271 49.0833 15.6891 49.0789 13.8473 48.8382C12.0586 48.6019 11.1134 48.1713 10.4376 47.511C9.7641 46.8485 9.32465 45.921 9.08394 44.1698C8.9934 43.5073 8.93377 42.7631 8.89844 41.9173C9.20112 41.0901 9.70041 40.3489 10.3533 39.7576C11.0061 39.1663 11.793 38.7426 12.646 38.5231C13.2864 38.3552 14.1189 38.3398 16.5017 38.3398Z" fill="white"/>
</svg>
