<svg width="45" height="45" viewBox="0 0 45 45" fill="none" xmlns="http://www.w3.org/2000/svg">
<path d="M22.5013 35.3334C29.589 35.3334 35.3346 29.5877 35.3346 22.5C35.3346 15.4124 29.589 9.66669 22.5013 9.66669C15.4136 9.66669 9.66797 15.4124 9.66797 22.5C9.66797 29.5877 15.4136 35.3334 22.5013 35.3334Z" stroke="#FCFDFD" stroke-width="2"/>
<path d="M11.4365 6.24933C10.1928 6.58243 9.05867 7.23711 8.14823 8.14756C7.23779 9.058 6.5831 10.1921 6.25 11.4358M33.5648 6.24933C34.8086 6.58243 35.9427 7.23711 36.8531 8.14756C37.7635 9.058 38.4182 10.1921 38.7513 11.4358M22.5007 15.1667V22.0417C22.5007 22.2947 22.706 22.5 22.959 22.5H28.0007" stroke="#FCFDFD" stroke-width="2" stroke-linecap="round"/>
</svg>
