<svg width="24" height="24" viewBox="0 0 24 24" fill="none" xmlns="http://www.w3.org/2000/svg">
<path d="M11.9961 2.5C12.3525 2.5 12.6627 2.60379 12.9424 2.81641V2.81738L19.8652 8.11719L19.8721 8.12207C20.0656 8.26551 20.2178 8.4475 20.3301 8.67578L20.3311 8.67773C20.4441 8.90564 20.5 9.14456 20.5 9.40039V20.7002C20.5 20.9103 20.4282 21.0895 20.2598 21.2598C20.0914 21.4299 19.9165 21.5 19.7139 21.5H14.7207C14.553 21.5 14.4355 21.4483 14.335 21.3467C14.2338 21.2435 14.1816 21.1217 14.1816 20.9492V13.8506H9.81836V20.9492C9.81836 21.1236 9.76491 21.2447 9.66406 21.3467C9.56324 21.4485 9.44654 21.5 9.28027 21.5H4.28613C4.08353 21.5 3.90857 21.4299 3.74023 21.2598C3.57182 21.0895 3.50004 20.9103 3.5 20.7002V9.40039C3.50005 9.14456 3.55592 8.90563 3.66895 8.67773C3.78236 8.44905 3.93524 8.26601 4.12891 8.12207L4.13477 8.11816L11.0586 2.81641L11.0596 2.81543C11.3331 2.60427 11.6394 2.50001 11.9961 2.5ZM12 2.80078C11.7132 2.80078 11.4484 2.89368 11.2275 3.07812L4.30371 8.35254L4.28418 8.36816C4.14066 8.48931 4.02222 8.63363 3.93262 8.79883C3.85575 8.94064 3.81094 9.09164 3.79395 9.24707L3.78613 9.40039V21.2002H9.53223V14.1006C9.53223 13.9283 9.58494 13.8074 9.68652 13.7051L9.68848 13.7031C9.78942 13.6007 9.90581 13.5498 10.0713 13.5498H13.9287C14.0943 13.5498 14.2114 13.6009 14.3135 13.7041C14.4146 13.8064 14.4678 13.9275 14.4678 14.1006V21.2002H20.2139V9.40039C20.2138 9.19274 20.1685 8.99036 20.0703 8.80371C19.9805 8.63306 19.8587 8.48619 19.71 8.36426L19.7031 8.3584L19.6963 8.35352L12.7734 3.07812C12.5521 2.89401 12.2872 2.80078 12 2.80078Z" fill="#FCFDFD" stroke="#FCFDFD"/>
</svg>
