<svg width="56" height="55" viewBox="0 0 56 55" fill="none" xmlns="http://www.w3.org/2000/svg">
<path d="M18.8327 29.7917H37.166V25.2084H18.8327V29.7917ZM18.8327 36.6667H37.166V32.0834H18.8327V36.6667ZM18.8327 43.5417H30.291V38.9584H18.8327V43.5417ZM14.2493 50.4167C12.9889 50.4167 11.9103 49.9683 11.0135 49.0715C10.1167 48.1747 9.66754 47.0953 9.66602 45.8334V9.16671C9.66602 7.90629 10.1152 6.82768 11.0135 5.93087C11.9118 5.03407 12.9905 4.5849 14.2493 4.58337H32.5827L46.3327 18.3334V45.8334C46.3327 47.0938 45.8843 48.1732 44.9875 49.0715C44.0907 49.9698 43.0113 50.4182 41.7494 50.4167H14.2493ZM30.291 20.625V9.16671H14.2493V45.8334H41.7494V20.625H30.291Z" fill="white"/>
</svg>
