<svg width="30" height="30" viewBox="0 0 30 30" fill="none" xmlns="http://www.w3.org/2000/svg">
<path d="M3.44727 30L4.27695 29.8191C4.5357 29.7653 4.79445 29.7131 5.0532 29.6625C5.44789 29.5847 5.84914 29.5059 6.24477 29.4338C6.54758 29.3803 6.8457 29.3316 7.14852 29.2725L7.21602 29.2528C7.5282 29.1994 7.83758 29.1403 8.14977 29.1066L9.66758 28.8816V0H9.61414C8.82992 0.00484875 8.0458 0.0195374 7.26195 0.0440625C6.39664 0.069375 5.5182 0.118125 4.65477 0.17625C4.28352 0.199687 3.90758 0.235312 3.5307 0.263437H3.47727V29.9897L3.44727 30ZM11.1376 0.0196875V28.6959C12.211 28.569 13.2873 28.4664 14.3654 28.3884C17.0166 28.1889 19.6764 28.1254 22.3341 28.1981C23.741 28.2431 25.1457 28.3244 26.5482 28.4419V1.87969C25.2943 1.5909 24.0325 1.33705 22.7645 1.11844C20.303 0.697474 17.823 0.39245 15.3329 0.204375C13.9384 0.103277 12.5412 0.0416899 11.1432 0.0196875H11.1376ZM24.5954 18.5147L24.5363 18.5109L23.8323 18.4322C22.0842 18.2511 20.3303 18.1307 18.5738 18.0712C16.815 18.0195 15.055 18.0261 13.2966 18.0909H13.2432C13.1841 18.0909 13.1307 18.0909 13.0716 18.0712C12.9467 18.0393 12.832 17.9757 12.7388 17.8866C12.6337 17.7786 12.5649 17.6405 12.5422 17.4916C12.5196 17.3426 12.544 17.1903 12.6123 17.0559C12.646 17.0025 12.6901 16.9284 12.7388 16.89C12.7936 16.8389 12.8544 16.7945 12.9198 16.7578C12.9976 16.7241 13.0707 16.7044 13.1448 16.6856H13.2563C13.501 16.6856 13.7448 16.6659 13.9698 16.6659C15.7062 16.6217 17.4437 16.633 19.1795 16.6997C20.9804 16.7784 22.7635 16.9097 24.541 17.115L24.7313 17.1347C24.7848 17.1544 24.8391 17.1544 24.8973 17.1684C25.0285 17.2275 25.141 17.3006 25.2198 17.3981C25.2732 17.4516 25.307 17.5256 25.3463 17.6034C25.3846 17.6723 25.4049 17.7497 25.4054 17.8284C25.4139 17.9313 25.3999 18.0348 25.3645 18.1318C25.329 18.2288 25.2729 18.3169 25.2001 18.39C25.141 18.4491 25.0829 18.4828 25.0285 18.5212C24.9713 18.5616 24.8973 18.5747 24.8232 18.5953C24.7848 18.615 24.7641 18.615 24.7116 18.615H24.6526L24.5954 18.5147ZM24.6385 15.1275C24.5795 15.1275 24.5795 15.1275 24.5213 15.1172L23.8276 15.0281C22.0869 14.8041 20.3375 14.6543 18.5841 14.5791C16.8294 14.4886 15.0719 14.4638 13.3154 14.505L13.2563 14.4862C13.2029 14.4666 13.1448 14.4666 13.0913 14.4478C12.9684 14.4101 12.8584 14.3391 12.7735 14.2425C12.7351 14.1834 12.676 14.1103 12.661 14.0559C12.6119 13.9535 12.5877 13.841 12.5903 13.7274C12.5929 13.6139 12.6223 13.5026 12.676 13.4025C12.7096 13.3323 12.7539 13.2678 12.8073 13.2113C12.8607 13.1578 12.9198 13.0988 12.9938 13.0847C13.0716 13.0462 13.1448 13.0059 13.2179 13.0059L13.3304 12.9872L14.0626 12.9675C15.7933 12.9486 17.5243 12.9861 19.2526 13.08C21.0451 13.1766 22.8335 13.3392 24.6141 13.5675L24.8054 13.5872L24.9179 13.6069C25.0485 13.6392 25.166 13.7109 25.2545 13.8122C25.4054 13.9631 25.4795 14.1684 25.4598 14.3737C25.4598 14.4516 25.441 14.5247 25.4063 14.5791C25.3679 14.6578 25.3285 14.7112 25.2938 14.7694C25.2554 14.8228 25.201 14.8631 25.1241 14.9222C25.0707 14.9559 24.992 14.9747 24.9188 14.9944L24.8063 15.0141H24.7529L24.6385 15.1275ZM24.6385 11.7384C24.5795 11.7384 24.5795 11.7384 24.5213 11.7281L23.8276 11.6306C22.0866 11.3902 20.3377 11.211 18.5841 11.0934C16.8302 10.9809 15.0729 10.9271 13.3154 10.9322H13.2563L13.1448 10.9125C13.0733 10.8932 13.0044 10.8655 12.9395 10.83C12.8451 10.7688 12.7646 10.6886 12.7031 10.5945C12.6415 10.5004 12.6004 10.3944 12.5823 10.2834C12.5823 10.2047 12.5823 10.1306 12.602 10.0584C12.6178 9.98414 12.6427 9.91205 12.676 9.84375C12.7185 9.77733 12.7692 9.71654 12.827 9.66281C12.9259 9.56882 13.0494 9.50478 13.1832 9.47812C13.2393 9.46403 13.297 9.45741 13.3548 9.45844H14.0673C17.6049 9.47676 21.137 9.73926 24.6385 10.2441L24.8232 10.2694C24.8823 10.2797 24.902 10.2797 24.9357 10.2928C25.009 10.3161 25.0782 10.3506 25.141 10.395C25.2198 10.4353 25.2732 10.4888 25.3126 10.5478C25.351 10.605 25.3866 10.6744 25.4251 10.7475C25.4609 10.8439 25.4759 10.9467 25.4693 11.0493C25.4627 11.1518 25.4345 11.2519 25.3866 11.3428C25.3538 11.4123 25.3091 11.4754 25.2545 11.5294C25.1632 11.6231 25.046 11.6874 24.9179 11.7141C24.8832 11.7291 24.8645 11.7291 24.8054 11.7337L24.752 11.7384H24.6385ZM24.6385 8.35031C24.5795 8.35031 24.5795 8.35031 24.5213 8.34L23.8276 8.2275C22.0895 7.94528 20.3401 7.73852 18.5841 7.60781C16.8312 7.46321 15.074 7.37535 13.3154 7.34438H13.2563L13.1251 7.32937C13.051 7.31063 12.9835 7.27031 12.9198 7.23656C12.8513 7.19812 12.797 7.13906 12.7435 7.08563C12.6995 7.02656 12.661 6.95344 12.6273 6.90094C12.6015 6.82646 12.5835 6.74947 12.5738 6.67125C12.5636 6.55857 12.5784 6.44502 12.6171 6.33871C12.6559 6.2324 12.7176 6.13595 12.7979 6.05625C12.8967 5.9628 13.0182 5.89686 13.1504 5.865C13.2029 5.85094 13.262 5.85094 13.3154 5.85094C15.3501 5.87519 17.383 5.98121 19.4091 6.16875C21.1426 6.315 22.8713 6.53906 24.5907 6.82219L24.7623 6.84188C24.811 6.84188 24.8251 6.84188 24.8738 6.85594C24.9526 6.88125 25.0116 6.915 25.0791 6.95344C25.1382 6.98812 25.1916 7.04719 25.2366 7.10063C25.3482 7.27031 25.4016 7.47563 25.3679 7.68188C25.3501 7.75445 25.3236 7.82464 25.2891 7.89094C25.2487 7.9545 25.1977 8.01063 25.1382 8.05688C25.0447 8.14898 24.9286 8.21492 24.8016 8.24813H24.6301L24.6385 8.35031ZM5.04852 7.71C4.85664 7.70988 4.67204 7.63659 4.53233 7.50507C4.39263 7.37355 4.30833 7.1937 4.29664 7.00219C4.29664 6.92812 4.31539 6.85969 4.33508 6.79688C4.35586 6.71006 4.39414 6.62839 4.44758 6.55687C4.50255 6.47774 4.57226 6.40994 4.65289 6.35719C4.74624 6.30081 4.84872 6.26115 4.9557 6.24L5.5557 6.18656C6.37695 6.11438 7.18695 6.05531 7.9932 6.00656H8.06539C8.19758 6.01125 8.30914 6.03562 8.40289 6.09375C8.64664 6.22125 8.79758 6.47531 8.79758 6.74344C8.79389 6.81144 8.78096 6.87862 8.75914 6.94313C8.74032 7.02863 8.7018 7.10857 8.64664 7.17656C8.5932 7.27406 8.51445 7.3275 8.44133 7.38656C8.34766 7.4413 8.2452 7.47937 8.13851 7.49906C8.01101 7.51875 7.87977 7.51875 7.74758 7.53281C7.57602 7.5525 7.39133 7.5525 7.20102 7.57312L5.74133 7.68469L5.38508 7.725C5.31102 7.74375 5.23414 7.74375 5.14039 7.74375L5.04852 7.71ZM24.6188 4.96125L24.5026 4.94625L23.8135 4.82344C22.0655 4.52965 20.3083 4.29358 18.5448 4.11562C16.7926 3.9463 15.0354 3.83374 13.276 3.77813H13.217L13.1045 3.75469C13.0328 3.7339 12.9639 3.70463 12.8991 3.6675C12.8382 3.62337 12.7828 3.57206 12.7341 3.51469C12.6587 3.43059 12.6053 3.32913 12.5787 3.21937C12.552 3.1096 12.5529 2.99495 12.5813 2.88563C12.601 2.80687 12.6348 2.73469 12.6751 2.66062C12.7135 2.58188 12.7679 2.52844 12.826 2.47031C12.9256 2.37685 13.0487 2.31235 13.1823 2.28375C13.2357 2.26406 13.2948 2.26406 13.3482 2.26406L14.0804 2.28375C15.8232 2.35781 17.5463 2.47031 19.2704 2.65969C21.0713 2.84437 22.8488 3.10875 24.632 3.40688L24.8166 3.42563C24.8757 3.42563 24.8954 3.42562 24.9291 3.44531C25.0079 3.46406 25.0801 3.50437 25.1391 3.53813C25.2214 3.60196 25.2902 3.68148 25.3415 3.77208C25.3929 3.86268 25.4257 3.96256 25.4382 4.06594C25.457 4.13812 25.4382 4.21219 25.4185 4.29094C25.4147 4.3652 25.389 4.43667 25.3445 4.49625C25.3058 4.55656 25.2619 4.61334 25.2132 4.66594C25.1153 4.75793 24.9904 4.81609 24.857 4.83187L24.7491 4.85156H24.6901L24.6188 4.96125ZM5.02883 3.99844C4.92113 3.99861 4.81465 3.97559 4.71664 3.93094C4.63041 3.88619 4.55166 3.82831 4.4832 3.75938C4.37634 3.64157 4.30969 3.49285 4.29289 3.33469C4.27429 3.14293 4.33115 2.95146 4.4514 2.80093C4.57165 2.6504 4.74582 2.55266 4.93695 2.52844C5.13664 2.51437 5.33352 2.51437 5.52852 2.49469C6.3432 2.43563 7.15508 2.40188 7.96508 2.36344H8.02883C8.14133 2.38219 8.25383 2.40187 8.34664 2.45625C8.5707 2.5875 8.72258 2.85094 8.72258 3.10969C8.72071 3.18142 8.70709 3.25236 8.68226 3.31969C8.64946 3.40577 8.607 3.48786 8.5557 3.56437C8.49413 3.64256 8.41559 3.70571 8.32601 3.74906C8.23088 3.8092 8.12075 3.84136 8.0082 3.84188C7.87695 3.86156 7.74477 3.86156 7.59289 3.86156L7.03133 3.9C6.52883 3.93375 6.04039 3.95344 5.55102 3.99281L5.17602 4.0125C5.08227 4.03219 5.01008 4.03219 4.93133 4.03219L5.02883 3.99844Z" fill="#F97316"/>
</svg>
