<svg width="56" height="55" viewBox="0 0 56 55" fill="none" xmlns="http://www.w3.org/2000/svg">
<path d="M6.82031 55L8.34141 54.6683C8.81578 54.5697 9.29016 54.4741 9.76453 54.3812C10.4881 54.2386 11.2237 54.0942 11.9491 53.9619C12.5042 53.8639 13.0508 53.7745 13.6059 53.6663L13.7297 53.6302C14.302 53.5322 14.8692 53.4239 15.4416 53.362L18.2242 52.9495V0H18.1263C16.6885 0.00888937 15.251 0.0358186 13.8139 0.0807812C12.2275 0.127188 10.617 0.216562 9.03406 0.323125C8.35344 0.366094 7.66422 0.431406 6.97328 0.482969H6.87531V54.9811L6.82031 55ZM20.9192 0.0360937V52.6092C22.8872 52.3764 24.8603 52.1885 26.8369 52.0455C31.6975 51.6797 36.5737 51.5632 41.4463 51.6966C44.0255 51.7791 46.6008 51.928 49.172 52.1434V3.44609C46.8731 2.91664 44.5599 2.45125 42.2352 2.05047C37.7224 1.2787 33.1759 0.719491 28.6106 0.374687C26.054 0.189341 23.4926 0.0764314 20.9295 0.0360937H20.9192ZM45.5919 33.9436L45.4836 33.9367L44.1928 33.7923C40.9879 33.4603 37.7725 33.2396 34.5523 33.1306C31.3279 33.0358 28.1012 33.0479 24.8775 33.1667H24.7795C24.6713 33.1667 24.5733 33.1667 24.465 33.1306C24.2359 33.0721 24.0257 32.9555 23.8548 32.792C23.6621 32.5942 23.5361 32.341 23.4944 32.0679C23.4528 31.7948 23.4977 31.5155 23.6228 31.2692C23.6847 31.1713 23.7655 31.0355 23.8548 30.965C23.9553 30.8712 24.0667 30.7899 24.1866 30.7227C24.3292 30.6608 24.4633 30.6247 24.5991 30.5903H24.8036C25.2522 30.5903 25.6991 30.5542 26.1116 30.5542C29.2951 30.4731 32.4804 30.4938 35.6627 30.6161C38.9644 30.7605 42.2334 31.0011 45.4922 31.3775L45.8411 31.4136C45.9391 31.4497 46.0387 31.4497 46.1453 31.4755C46.3859 31.5837 46.5922 31.7178 46.7366 31.8966C46.8345 31.9945 46.8964 32.1303 46.9686 32.273C47.0388 32.3992 47.076 32.5411 47.0769 32.6855C47.0925 32.8741 47.0669 33.0639 47.0019 33.2416C46.9369 33.4194 46.834 33.5809 46.7005 33.715C46.5922 33.8233 46.4856 33.8852 46.3859 33.9556C46.2811 34.0295 46.1453 34.0536 46.0095 34.0914C45.9391 34.1275 45.9012 34.1275 45.805 34.1275H45.6967L45.5919 33.9436ZM45.6709 27.7337C45.5627 27.7337 45.5627 27.7337 45.4561 27.7148L44.1842 27.5516C40.993 27.1409 37.7858 26.8663 34.5712 26.7283C31.3543 26.5623 28.1322 26.5171 24.9119 26.5925L24.8036 26.5581C24.7056 26.522 24.5991 26.522 24.5011 26.4877C24.2758 26.4186 24.074 26.2883 23.9184 26.1112C23.848 26.003 23.7397 25.8689 23.7122 25.7692C23.6222 25.5815 23.5778 25.3751 23.5826 25.1669C23.5874 24.9588 23.6412 24.7547 23.7397 24.5712C23.8012 24.4426 23.8824 24.3243 23.9803 24.2206C24.0783 24.1227 24.1866 24.0144 24.3223 23.9886C24.465 23.9181 24.5991 23.8442 24.7331 23.8442L24.9394 23.8098L26.2817 23.7738C29.4548 23.7391 32.6281 23.8079 35.7967 23.98C39.0831 24.1572 42.3618 24.4553 45.6262 24.8738L45.9769 24.9098L46.1831 24.9459C46.4225 25.0052 46.6379 25.1366 46.8002 25.3223C47.0769 25.5991 47.2127 25.9755 47.1766 26.3519C47.1766 26.4945 47.1422 26.6286 47.0786 26.7283C47.0081 26.8727 46.9359 26.9706 46.8723 27.0772C46.8019 27.1752 46.7022 27.2491 46.5612 27.3573C46.4633 27.4192 46.3189 27.4536 46.1848 27.4897L45.9786 27.5258H45.8806L45.6709 27.7337ZM45.6709 21.5205C45.5627 21.5205 45.5627 21.5205 45.4561 21.5016L44.1842 21.3228C40.9924 20.882 37.7861 20.5535 34.5712 20.338C31.3557 20.1317 28.1341 20.0331 24.9119 20.0423H24.8036L24.5991 20.0063C24.4681 19.9709 24.3417 19.9201 24.2227 19.855C24.0497 19.7429 23.902 19.5958 23.7893 19.4232C23.6765 19.2507 23.6011 19.0564 23.5678 18.853C23.5678 18.7086 23.5678 18.5728 23.6039 18.4405C23.6331 18.3043 23.6786 18.1721 23.7397 18.0469C23.8176 17.9251 23.9106 17.8137 24.0164 17.7152C24.1977 17.5428 24.4242 17.4254 24.6695 17.3766C24.7723 17.3507 24.8781 17.3386 24.9841 17.3405H26.2903C32.776 17.3741 39.2516 17.8553 45.6709 18.7808L46.0095 18.8272C46.1178 18.8461 46.1539 18.8461 46.2158 18.8702C46.3501 18.9129 46.4771 18.9761 46.5922 19.0575C46.7366 19.1314 46.8345 19.2294 46.9067 19.3377C46.9772 19.4425 47.0425 19.5697 47.113 19.7037C47.1786 19.8804 47.2062 20.0689 47.1941 20.257C47.1819 20.445 47.1303 20.6284 47.0425 20.7952C46.9824 20.9225 46.9003 21.0382 46.8002 21.1372C46.6328 21.309 46.418 21.4269 46.1831 21.4758C46.1195 21.5033 46.0852 21.5033 45.9769 21.5119L45.8789 21.5205H45.6709ZM45.6709 15.3089C45.5627 15.3089 45.5627 15.3089 45.4561 15.29L44.1842 15.0837C40.9978 14.5663 37.7905 14.1873 34.5712 13.9477C31.3575 13.6826 28.136 13.5215 24.9119 13.4647H24.8036L24.563 13.4372C24.4272 13.4028 24.3034 13.3289 24.1866 13.267C24.0611 13.1966 23.9614 13.0883 23.8634 12.9903C23.7827 12.882 23.7122 12.748 23.6503 12.6517C23.603 12.5152 23.5702 12.374 23.5523 12.2306C23.5336 12.024 23.5607 11.8159 23.6317 11.621C23.7027 11.4261 23.8159 11.2493 23.9631 11.1031C24.1442 10.9318 24.367 10.8109 24.6094 10.7525C24.7056 10.7267 24.8139 10.7267 24.9119 10.7267C28.6421 10.7712 32.3691 10.9656 36.0837 11.3094C39.2617 11.5775 42.4311 11.9883 45.5833 12.5073L45.8978 12.5434C45.9872 12.5434 46.013 12.5434 46.1023 12.5692C46.2467 12.6156 46.355 12.6775 46.4787 12.748C46.587 12.8116 46.685 12.9198 46.7675 13.0178C46.972 13.3289 47.07 13.7053 47.0081 14.0834C46.9754 14.2165 46.927 14.3452 46.8638 14.4667C46.7897 14.5833 46.696 14.6862 46.587 14.7709C46.4156 14.9398 46.2028 15.0607 45.97 15.1216H45.6555L45.6709 15.3089ZM9.75594 14.135C9.40417 14.1348 9.06573 14.0004 8.8096 13.7593C8.55347 13.5182 8.39894 13.1885 8.3775 12.8373C8.3775 12.7016 8.41188 12.5761 8.44797 12.4609C8.48608 12.3018 8.55626 12.152 8.65422 12.0209C8.75501 11.8759 8.8828 11.7516 9.03062 11.6548C9.20177 11.5515 9.38964 11.4788 9.58578 11.44L10.6858 11.342C12.1914 11.2097 13.6764 11.1014 15.1545 11.012H15.2869C15.5292 11.0206 15.7338 11.0653 15.9056 11.1719C16.3525 11.4056 16.6292 11.8714 16.6292 12.363C16.6225 12.4876 16.5988 12.6108 16.5588 12.7291C16.5242 12.8858 16.4536 13.0324 16.3525 13.157C16.2545 13.3358 16.1102 13.4338 15.9761 13.542C15.8044 13.6424 15.6165 13.7122 15.4209 13.7483C15.1872 13.7844 14.9466 13.7844 14.7042 13.8102C14.3897 13.8462 14.0511 13.8463 13.7022 13.8841L11.0261 14.0886L10.373 14.1625C10.2372 14.1969 10.0962 14.1969 9.92437 14.1969L9.75594 14.135ZM45.6348 9.09562L45.4217 9.06812L44.1584 8.84297C40.9538 8.30436 37.7322 7.87157 34.4991 7.54531C31.2868 7.23488 28.0653 7.02852 24.8397 6.92656H24.7314L24.5252 6.88359C24.3938 6.84548 24.2674 6.79182 24.1488 6.72375C24.037 6.64284 23.9355 6.54878 23.8463 6.44359C23.708 6.28941 23.6101 6.1034 23.5612 5.90217C23.5123 5.70094 23.514 5.49074 23.5661 5.29031C23.6022 5.14594 23.6641 5.01359 23.738 4.87781C23.8084 4.73344 23.9081 4.63547 24.0147 4.52891C24.1972 4.35757 24.423 4.23931 24.6678 4.18688C24.7658 4.15078 24.8741 4.15078 24.972 4.15078L26.3144 4.18688C29.5095 4.32266 32.6686 4.52891 35.8294 4.87609C39.1311 5.21469 42.3898 5.69938 45.6589 6.24594L45.9975 6.28031C46.1058 6.28031 46.1419 6.28031 46.2038 6.31641C46.3481 6.35078 46.4805 6.42469 46.5888 6.48656C46.7396 6.60359 46.8657 6.74938 46.9598 6.91548C47.0539 7.08157 47.1142 7.26469 47.137 7.45422C47.1714 7.58656 47.137 7.72234 47.1009 7.86672C47.094 8.00288 47.0467 8.13389 46.9652 8.24312C46.8942 8.35369 46.8137 8.4578 46.7245 8.55422C46.545 8.72288 46.3161 8.8295 46.0714 8.85844L45.8737 8.89453H45.7655L45.6348 9.09562ZM9.71984 7.33047C9.52239 7.33079 9.32718 7.28859 9.1475 7.20672C8.98941 7.12468 8.84503 7.01857 8.71953 6.89219C8.52361 6.67622 8.40143 6.40356 8.37062 6.11359C8.33653 5.76203 8.44076 5.41101 8.66122 5.13504C8.88168 4.85907 9.20099 4.67987 9.55141 4.63547C9.9175 4.60969 10.2784 4.60969 10.6359 4.57359C12.1295 4.46531 13.618 4.40344 15.103 4.33297H15.2198C15.4261 4.36734 15.6323 4.40344 15.8025 4.50312C16.2133 4.74375 16.4917 5.22672 16.4917 5.70109C16.4883 5.8326 16.4633 5.96266 16.4178 6.08609C16.3577 6.24391 16.2798 6.39441 16.1858 6.53469C16.0729 6.67802 15.9289 6.7938 15.7647 6.87328C15.5903 6.98352 15.3884 7.04249 15.182 7.04344C14.9414 7.07953 14.6991 7.07953 14.4206 7.07953L13.3911 7.15C12.4698 7.21187 11.5744 7.24797 10.6772 7.32016L9.98969 7.35625C9.81781 7.39234 9.68547 7.39234 9.54109 7.39234L9.71984 7.33047Z" fill="white"/>
</svg>
