<svg width="30" height="20" viewBox="0 0 30 20" fill="none" xmlns="http://www.w3.org/2000/svg">
<path d="M2.61876 11.2788C2.37663 11.0366 2.2604 10.7541 2.27009 10.4313C2.27978 10.1085 2.40609 9.82598 2.64902 9.58385C2.89115 9.3619 3.17364 9.24568 3.49648 9.23519C3.81932 9.2247 4.1018 9.34092 4.34393 9.58385L8.64173 13.8817L9.06546 14.3054L9.48919 14.7291C9.73132 14.9712 9.84754 15.2537 9.83785 15.5766C9.82817 15.8994 9.70186 16.1819 9.45892 16.424C9.21679 16.646 8.93431 16.7622 8.61147 16.7727C8.28863 16.7832 8.00614 16.667 7.76401 16.424L2.61876 11.2788ZM15.4516 13.8514L25.7421 3.56088C25.9843 3.31875 26.2668 3.20293 26.5896 3.21342C26.9124 3.22391 27.1949 3.34982 27.437 3.59114C27.659 3.83327 27.7752 4.11576 27.7857 4.4386C27.7962 4.76144 27.68 5.04392 27.437 5.28605L16.2991 16.424C16.057 16.6661 15.7745 16.7872 15.4516 16.7872C15.1288 16.7872 14.8463 16.6661 14.6042 16.424L9.45892 11.2788C9.23697 11.0568 9.12599 10.7796 9.12599 10.447C9.12599 10.1145 9.23697 9.82679 9.45892 9.58385C9.70105 9.34172 9.98878 9.22066 10.3221 9.22066C10.6554 9.22066 10.9428 9.34172 11.1841 9.58385L15.4516 13.8514ZM20.5666 5.31632L16.2991 9.58385C16.0771 9.80581 15.7999 9.91678 15.4674 9.91678C15.1348 9.91678 14.8471 9.80581 14.6042 9.58385C14.362 9.34172 14.241 9.0544 14.241 8.72187C14.241 8.38935 14.362 8.10162 14.6042 7.85868L18.8717 3.59114C19.0937 3.36919 19.3713 3.25822 19.7046 3.25822C20.038 3.25822 20.3253 3.36919 20.5666 3.59114C20.8088 3.83327 20.9298 4.1206 20.9298 4.45313C20.9298 4.78565 20.8088 5.07338 20.5666 5.31632Z" fill="#27AE60"/>
</svg>
