<svg width="20" height="20" viewBox="0 0 20 20" fill="none" xmlns="http://www.w3.org/2000/svg">
<path d="M19.1406 1.60156C20 2.46094 20 3.82812 19.1406 4.6875L17.9688 5.85938L14.1406 2.03125L15.3125 0.859375C16.1719 0 17.5391 0 18.3984 0.859375L19.1406 1.60156ZM6.71875 9.45312L13.2422 2.92969L17.0703 6.75781L10.5469 13.2812C10.3125 13.5156 10 13.7109 9.6875 13.8281L6.21094 14.9609C5.85938 15.0781 5.50781 15 5.27344 14.7266C5 14.4922 4.92188 14.1016 5.03906 13.7891L6.17188 10.3125C6.28906 10 6.48438 9.6875 6.71875 9.45312ZM7.5 2.5C8.16406 2.5 8.75 3.08594 8.75 3.75C8.75 4.45312 8.16406 5 7.5 5H3.75C3.04688 5 2.5 5.58594 2.5 6.25V16.25C2.5 16.9531 3.04688 17.5 3.75 17.5H13.75C14.4141 17.5 15 16.9531 15 16.25V12.5C15 11.8359 15.5469 11.25 16.25 11.25C16.9141 11.25 17.5 11.8359 17.5 12.5V16.25C17.5 18.3203 15.8203 20 13.75 20H3.75C1.64062 20 0 18.3203 0 16.25V6.25C0 4.17969 1.64062 2.5 3.75 2.5H7.5Z" fill="#F97316"/>
</svg>
