<svg width="25" height="26" viewBox="0 0 25 26" fill="none" xmlns="http://www.w3.org/2000/svg">
<path d="M5.0816 20.7778H6.66493L17.526 9.91667L15.9427 8.33333L5.0816 19.1944V20.7778ZM2.85938 23V18.2778L17.526 3.63889C17.7483 3.43519 17.9938 3.27778 18.2627 3.16667C18.5316 3.05556 18.8138 3 19.1094 3C19.4049 3 19.692 3.05556 19.9705 3.16667C20.249 3.27778 20.4897 3.44444 20.6927 3.66667L22.2205 5.22222C22.4427 5.42593 22.6049 5.66667 22.7071 5.94444C22.8094 6.22222 22.8601 6.5 22.8594 6.77778C22.8594 7.07407 22.8086 7.35667 22.7071 7.62556C22.6057 7.89444 22.4434 8.13963 22.2205 8.36111L7.5816 23H2.85938ZM16.7205 9.13889L15.9427 8.33333L17.526 9.91667L16.7205 9.13889Z" fill="#F7CE52"/>
</svg>
