<svg width="24" height="24" viewBox="0 0 24 24" fill="none" xmlns="http://www.w3.org/2000/svg">
<path d="M12.2795 10.8734C11.5297 10.8655 10.799 10.6359 10.1794 10.2136C9.55975 9.79126 9.07893 9.19506 8.79744 8.50005C8.51595 7.80503 8.44638 7.04226 8.59749 6.30779C8.7486 5.57332 9.11363 4.89997 9.64663 4.37252C10.1796 3.84508 10.8568 3.48712 11.5928 3.34371C12.3288 3.20029 13.0908 3.27785 13.7828 3.5666C14.4749 3.85535 15.066 4.34239 15.4818 4.9664C15.8976 5.59041 16.1195 6.32349 16.1195 7.07335C16.1125 8.08593 15.7044 9.05444 14.9846 9.7667C14.2649 10.479 13.2921 10.8769 12.2795 10.8734ZM12.2795 4.60668C11.7935 4.61457 11.3205 4.76591 10.9202 5.0417C10.5199 5.31749 10.2099 5.70542 10.0293 6.15679C9.84877 6.60815 9.80559 7.1028 9.90524 7.57863C10.0049 8.05445 10.2429 8.49022 10.5894 8.83119C10.9359 9.17217 11.3755 9.40316 11.8528 9.49514C12.3302 9.58712 12.8241 9.53599 13.2725 9.34818C13.7209 9.16036 14.1038 8.84424 14.3731 8.43951C14.6424 8.03478 14.7861 7.55949 14.7862 7.07335C14.7792 6.41439 14.5115 5.78502 14.0418 5.32281C13.5721 4.86059 12.9385 4.60312 12.2795 4.60668Z" fill="#FCFDFD"/>
<path d="M12.2792 10.8734C11.5294 10.8655 10.7987 10.6359 10.1791 10.2136C9.55944 9.79126 9.07861 9.19506 8.79712 8.50005C8.51564 7.80503 8.44607 7.04226 8.59718 6.30779C8.74829 5.57332 9.11332 4.89997 9.64632 4.37252C10.1793 3.84508 10.8564 3.48712 11.5925 3.34371C12.3285 3.20029 13.0905 3.27785 13.7825 3.5666C14.4745 3.85535 15.0657 4.34239 15.4815 4.9664C15.8973 5.59041 16.1192 6.32349 16.1192 7.07335C16.1122 8.08593 15.7041 9.05444 14.9843 9.7667C14.2645 10.479 13.2918 10.8769 12.2792 10.8734ZM12.2792 4.60668C11.7931 4.61457 11.3202 4.76591 10.9199 5.0417C10.5195 5.31749 10.2096 5.70542 10.029 6.15679C9.84846 6.60815 9.80528 7.1028 9.90492 7.57863C10.0046 8.05445 10.2426 8.49022 10.5891 8.83119C10.9356 9.17217 11.3752 9.40316 11.8525 9.49514C12.3299 9.58712 12.8238 9.53599 13.2722 9.34818C13.7206 9.16036 14.1035 8.84424 14.3728 8.43951C14.6421 8.03478 14.7858 7.55949 14.7859 7.07335C14.7788 6.41439 14.5112 5.78502 14.0415 5.32281C13.5718 4.86059 12.9382 4.60312 12.2792 4.60668ZM14.6059 11.7667C11.6489 11.2521 8.60479 11.7205 5.93922 13.1C5.75 13.2051 5.59332 13.3602 5.48632 13.5483C5.37932 13.7364 5.32613 13.9504 5.33255 14.1667V16.54C5.33255 16.7168 5.40279 16.8864 5.52781 17.0114C5.65284 17.1364 5.82241 17.2067 5.99922 17.2067C6.17603 17.2067 6.3456 17.1364 6.47062 17.0114C6.59565 16.8864 6.66588 16.7168 6.66588 16.54V14.2534C9.13766 13.0131 11.9485 12.6196 14.6659 13.1334L14.6059 11.7667Z" fill="#FCFDFD"/>
<path d="M21.9993 14.6666H17.5327V13.68C17.5327 13.5032 17.4624 13.3336 17.3374 13.2086C17.2124 13.0835 17.0428 13.0133 16.866 13.0133C16.6892 13.0133 16.5196 13.0835 16.3946 13.2086C16.2696 13.3336 16.1993 13.5032 16.1993 13.68V14.6666H11.3327C11.1559 14.6666 10.9863 14.7369 10.8613 14.8619C10.7363 14.9869 10.666 15.1565 10.666 15.3333V22C10.666 22.1768 10.7363 22.3464 10.8613 22.4714C10.9863 22.5964 11.1559 22.6666 11.3327 22.6666H21.9993C22.1762 22.6666 22.3457 22.5964 22.4708 22.4714C22.5958 22.3464 22.666 22.1768 22.666 22V15.3333C22.666 15.1565 22.5958 14.9869 22.4708 14.8619C22.3457 14.7369 22.1762 14.6666 21.9993 14.6666ZM21.3327 21.3333H11.9993V16H16.1993V16.2733C16.1993 16.4501 16.2696 16.6197 16.3946 16.7447C16.5196 16.8697 16.6892 16.94 16.866 16.94C17.0428 16.94 17.2124 16.8697 17.3374 16.7447C17.4624 16.6197 17.5327 16.4501 17.5327 16.2733V16H21.3327V21.3333Z" fill="#FCFDFD"/>
<path d="M14.5407 18.28H18.514V19.2133H14.5407V18.28ZM7.22732 8.16C5.38161 8.19088 3.56792 8.64715 1.92732 9.49333C1.74889 9.58758 1.59944 9.72854 1.49493 9.90116C1.39042 10.0738 1.33479 10.2715 1.33398 10.4733V12.54C1.33398 12.7168 1.40422 12.8864 1.52925 13.0114C1.65427 13.1364 1.82384 13.2067 2.00065 13.2067C2.17746 13.2067 2.34703 13.1364 2.47206 13.0114C2.59708 12.8864 2.66732 12.7168 2.66732 12.54V10.6067C4.23485 9.82641 5.97036 9.44405 7.72065 9.49333C7.49183 9.07543 7.32561 8.62619 7.22732 8.16ZM22.074 9.48666C20.6026 8.7148 18.9854 8.26056 17.3273 8.15333C17.2293 8.61866 17.0655 9.06762 16.8407 9.48666C18.4027 9.52427 19.9371 9.90673 21.334 10.6067V12.54C21.334 12.7168 21.4042 12.8864 21.5292 13.0114C21.6543 13.1364 21.8238 13.2067 22.0007 13.2067C22.1775 13.2067 22.347 13.1364 22.4721 13.0114C22.5971 12.8864 22.6673 12.7168 22.6673 12.54V10.4733C22.6677 10.2704 22.6127 10.0712 22.5081 9.89735C22.4035 9.72345 22.2534 9.58144 22.074 9.48666ZM7.10732 7.07333V6.62666C6.58506 6.55677 6.10988 6.28815 5.7807 5.87673C5.45151 5.4653 5.29369 4.94277 5.34007 4.4179C5.38646 3.89304 5.63349 3.40628 6.02973 3.05897C6.42597 2.71165 6.9409 2.53054 7.46732 2.55333C8.01486 2.55234 8.54114 2.76524 8.93398 3.14666C9.28074 2.86101 9.66139 2.61918 10.0673 2.42666C9.61373 1.9051 9.01274 1.53322 8.34357 1.36004C7.67441 1.18686 6.96847 1.22051 6.31881 1.45656C5.66915 1.6926 5.10626 2.11996 4.70434 2.6823C4.30241 3.24464 4.08031 3.91557 4.06732 4.60666C4.08131 5.4525 4.41012 6.26274 4.98952 6.87913C5.56892 7.49551 6.3573 7.87376 7.20065 7.94C7.14403 7.65443 7.1128 7.36441 7.10732 7.07333ZM16.514 1.22C16.0558 1.2201 15.6023 1.31153 15.1799 1.48896C14.7575 1.66639 14.3748 1.92624 14.054 2.25333C14.5042 2.41763 14.9303 2.64187 15.3207 2.92C15.6319 2.70395 15.9959 2.57642 16.3739 2.551C16.7519 2.52559 17.1298 2.60324 17.4671 2.77568C17.8045 2.94812 18.0887 3.20888 18.2895 3.53016C18.4903 3.85144 18.6001 4.2212 18.6073 4.6C18.6031 4.98909 18.4888 5.36904 18.2776 5.69585C18.0664 6.02266 17.767 6.28298 17.414 6.44666C17.4411 6.65221 17.4544 6.85934 17.454 7.06666C17.4519 7.33463 17.4296 7.60205 17.3873 7.86666C18.1136 7.67995 18.7577 7.25838 19.2195 6.66757C19.6813 6.07676 19.9349 5.34985 19.9407 4.6C19.9319 3.6982 19.5665 2.83653 18.9245 2.20322C18.2824 1.56991 17.4158 1.21643 16.514 1.22Z" fill="#FCFDFD"/>
</svg>
