<svg width="24" height="24" viewBox="0 0 24 24" fill="none" xmlns="http://www.w3.org/2000/svg">
<path fill-rule="evenodd" clip-rule="evenodd" d="M4.544 2.95501C4.33074 2.75629 4.04867 2.64811 3.75722 2.65325C3.46577 2.65839 3.18769 2.77646 2.98157 2.98258C2.77545 3.1887 2.65738 3.46678 2.65224 3.75823C2.6471 4.04968 2.75528 4.33175 2.954 4.54501L4.199 5.79001C2.71125 7.00767 1.52964 8.55711 0.749004 10.314L0.359004 11.1915C0.245924 11.4463 0.1875 11.722 0.1875 12.0008C0.1875 12.2795 0.245924 12.5552 0.359004 12.81L0.749004 13.6875C1.44042 15.2419 2.44638 16.6361 3.70344 17.7823C4.96051 18.9285 6.44142 19.8019 8.05281 20.3473C9.6642 20.8927 11.3711 21.0983 13.0659 20.9512C14.7607 20.8041 16.4067 20.3074 17.9 19.4925L19.454 21.045C19.557 21.1555 19.6812 21.2442 19.8192 21.3057C19.9572 21.3672 20.1062 21.4002 20.2572 21.4029C20.4083 21.4056 20.5583 21.3778 20.6984 21.3212C20.8385 21.2646 20.9657 21.1804 21.0726 21.0736C21.1794 20.9667 21.2636 20.8395 21.3202 20.6994C21.3768 20.5593 21.4046 20.4093 21.4019 20.2582C21.3992 20.1072 21.3662 19.9582 21.3047 19.8202C21.2432 19.6822 21.1545 19.558 21.044 19.455L4.544 2.95501ZM16.226 17.817L14.285 15.8775C13.4255 16.3855 12.4214 16.5931 11.4309 16.4678C10.4403 16.3425 9.51961 15.8914 8.81362 15.1854C8.10763 14.4794 7.65648 13.5587 7.53118 12.5682C7.40588 11.5776 7.61355 10.5736 8.1215 9.71401L5.798 7.39051C4.50052 8.40532 3.47235 9.72349 2.804 11.229L2.4605 12L2.8055 12.7725C3.34776 13.9914 4.12692 15.0904 5.09769 16.0054C6.06846 16.9205 7.21146 17.6335 8.46024 18.1029C9.70901 18.5723 11.0386 18.7887 12.3718 18.7396C13.705 18.6906 15.0151 18.3769 16.226 17.817ZM9.824 11.4165C9.7219 11.7984 9.72206 12.2004 9.82447 12.5822C9.92688 12.964 10.1279 13.3121 10.4074 13.5916C10.6869 13.8711 11.0351 14.0721 11.4168 14.1745C11.7986 14.277 12.2006 14.2771 12.5825 14.175L9.824 11.4165ZM12.311 7.51051L16.487 11.6865C16.4115 10.6039 15.9473 9.58502 15.1799 8.81763C14.4125 8.05024 13.3936 7.58602 12.311 7.51051ZM21.191 12.7725C20.8338 13.5774 20.3723 14.3319 19.8185 15.0165L21.416 16.6155C22.1617 15.7306 22.7788 14.7449 23.249 13.6875L23.639 12.81C23.7523 12.555 23.8108 12.2791 23.8108 12C23.8108 11.721 23.7523 11.445 23.639 11.19L23.249 10.314C22.0239 7.56024 19.8315 5.35134 17.0869 4.10568C14.3424 2.86002 11.2363 2.6641 8.357 3.55501L10.214 5.41501C12.431 5.01583 14.7178 5.37191 16.7085 6.42626C18.6991 7.4806 20.2786 9.17227 21.194 11.2305L21.536 12.0015L21.191 12.7725Z" fill="#FCFDFD"/>
</svg>
