<svg width="29" height="26" viewBox="0 0 29 26" fill="none" xmlns="http://www.w3.org/2000/svg">
<path d="M3.84732 16.8717C2.84885 15.5749 2.34961 14.9253 2.34961 13C2.34961 11.0735 2.84885 10.4263 3.84732 9.12829C5.84073 6.53931 9.18385 3.60263 14.0963 3.60263C19.0088 3.60263 22.3519 6.53931 24.3453 9.12829C25.3438 10.4275 25.843 11.0747 25.843 13C25.843 14.9265 25.3438 15.5737 24.3453 16.8717C22.3519 19.4607 19.0088 22.3974 14.0963 22.3974C9.18385 22.3974 5.84073 19.4607 3.84732 16.8717Z" stroke="#2563EB" stroke-width="1.76201"/>
<path d="M17.6203 13C17.6203 13.9346 17.249 14.831 16.5881 15.4919C15.9273 16.1527 15.0309 16.524 14.0963 16.524C13.1617 16.524 12.2653 16.1527 11.6044 15.4919C10.9435 14.831 10.5723 13.9346 10.5723 13C10.5723 12.0654 10.9435 11.169 11.6044 10.5081C12.2653 9.84726 13.1617 9.47598 14.0963 9.47598C15.0309 9.47598 15.9273 9.84726 16.5881 10.5081C17.249 11.169 17.6203 12.0654 17.6203 13Z" stroke="#2563EB" stroke-width="1.76201"/>
</svg>
