<svg width="27" height="28" viewBox="0 0 27 28" fill="none" xmlns="http://www.w3.org/2000/svg">
<path d="M12.7754 19.4167H14.9421V12.9167H12.7754V19.4167ZM13.8587 10.75C14.1657 10.75 14.4231 10.646 14.6311 10.438C14.8391 10.23 14.9428 9.97288 14.9421 9.66666C14.9413 9.36043 14.8373 9.10332 14.6301 8.89532C14.4228 8.68732 14.1657 8.58332 13.8587 8.58332C13.5518 8.58332 13.2947 8.68732 13.0874 8.89532C12.8801 9.10332 12.7761 9.36043 12.7754 9.66666C12.7747 9.97288 12.8787 10.2304 13.0874 10.4391C13.2961 10.6478 13.5532 10.7514 13.8587 10.75ZM13.8587 24.8333C12.3601 24.8333 10.9518 24.5488 9.63373 23.9797C8.31567 23.4105 7.16914 22.6389 6.19414 21.6646C5.21914 20.6903 4.44745 19.5438 3.87906 18.225C3.31067 16.9062 3.02611 15.4979 3.02539 14C3.02467 12.5021 3.30923 11.0938 3.87906 9.77499C4.44889 8.45621 5.22059 7.30968 6.19414 6.33541C7.1677 5.36113 8.31423 4.58943 9.63373 4.02032C10.9532 3.45121 12.3616 3.16666 13.8587 3.16666C15.3559 3.16666 16.7642 3.45121 18.0837 4.02032C19.4032 4.58943 20.5498 5.36113 21.5233 6.33541C22.4969 7.30968 23.2689 8.45621 23.8395 9.77499C24.41 11.0938 24.6942 12.5021 24.6921 14C24.6899 15.4979 24.4053 16.9062 23.8384 18.225C23.2714 19.5438 22.4998 20.6903 21.5233 21.6646C20.5469 22.6389 19.4003 23.4109 18.0837 23.9807C16.7671 24.5506 15.3588 24.8348 13.8587 24.8333ZM13.8587 22.6667C16.2782 22.6667 18.3275 21.8271 20.0066 20.1479C21.6858 18.4687 22.5254 16.4194 22.5254 14C22.5254 11.5805 21.6858 9.53124 20.0066 7.85207C18.3275 6.17291 16.2782 5.33332 13.8587 5.33332C11.4393 5.33332 9.38998 6.17291 7.71081 7.85207C6.03164 9.53124 5.19206 11.5805 5.19206 14C5.19206 16.4194 6.03164 18.4687 7.71081 20.1479C9.38998 21.8271 11.4393 22.6667 13.8587 22.6667Z" fill="#2F80ED"/>
</svg>
