<svg width="24" height="24" viewBox="0 0 24 24" fill="none" xmlns="http://www.w3.org/2000/svg">
<path d="M8 9H16M8 13H11.5M10.48 19.512L8 21V18H6C5.20435 18 4.44129 17.6839 3.87868 17.1213C3.31607 16.5587 3 15.7956 3 15V7C3 6.20435 3.31607 5.44129 3.87868 4.87868C4.44129 4.31607 5.20435 4 6 4H18C18.7956 4 19.5587 4.31607 20.1213 4.87868C20.6839 5.44129 21 6.20435 21 7V11" stroke="#070707" stroke-width="2" stroke-linecap="round" stroke-linejoin="round"/>
<path d="M18.0001 22L21.3501 18.716C21.5556 18.5166 21.719 18.2782 21.8307 18.0146C21.9425 17.7511 22.0003 17.4678 22.0007 17.1815C22.0012 16.8953 21.9443 16.6118 21.8334 16.3479C21.7225 16.084 21.5599 15.845 21.3551 15.645C20.9375 15.2359 20.3765 15.0062 19.7918 15.0051C19.2072 15.004 18.6453 15.2315 18.2261 15.639L18.0021 15.859L17.7791 15.639C17.3615 15.2302 16.8007 15.0007 16.2163 14.9996C15.6319 14.9985 15.0703 15.2258 14.6511 15.633C14.4456 15.8323 14.2821 16.0707 14.1703 16.3342C14.0585 16.5977 14.0006 16.881 14 17.1672C13.9994 17.4535 14.0562 17.7369 14.167 18.0009C14.2778 18.2648 14.4404 18.5039 14.6451 18.704L18.0001 22Z" stroke="#070707" stroke-width="2" stroke-linecap="round" stroke-linejoin="round"/>
</svg>
