<svg width="45" height="45" viewBox="0 0 45 45" fill="none" xmlns="http://www.w3.org/2000/svg">
<path d="M5.75 11.5H38.75V33.5H5.75V11.5ZM22.25 17C23.7087 17 25.1076 17.5795 26.1391 18.6109C27.1705 19.6424 27.75 21.0413 27.75 22.5C27.75 23.9587 27.1705 25.3576 26.1391 26.3891C25.1076 27.4205 23.7087 28 22.25 28C20.7913 28 19.3924 27.4205 18.3609 26.3891C17.3295 25.3576 16.75 23.9587 16.75 22.5C16.75 21.0413 17.3295 19.6424 18.3609 18.6109C19.3924 17.5795 20.7913 17 22.25 17ZM13.0833 15.1667C13.0833 16.1391 12.697 17.0718 12.0094 17.7594C11.3218 18.447 10.3891 18.8333 9.41667 18.8333V26.1667C10.3891 26.1667 11.3218 26.553 12.0094 27.2406C12.697 27.9282 13.0833 28.8609 13.0833 29.8333H31.4167C31.4167 28.8609 31.803 27.9282 32.4906 27.2406C33.1782 26.553 34.1109 26.1667 35.0833 26.1667V18.8333C34.1109 18.8333 33.1782 18.447 32.4906 17.7594C31.803 17.0718 31.4167 16.1391 31.4167 15.1667H13.0833Z" fill="#FCFDFD"/>
</svg>
