<svg width="56" height="55" viewBox="0 0 56 55" fill="none" xmlns="http://www.w3.org/2000/svg">
<path d="M12.875 15.8125C12.875 14.1715 13.5269 12.5977 14.6873 11.4373C15.8477 10.2769 17.4215 9.625 19.0625 9.625C20.7035 9.625 22.2773 10.2769 23.4377 11.4373C24.5981 12.5977 25.25 14.1715 25.25 15.8125C25.25 17.4535 24.5981 19.0273 23.4377 20.1877C22.2773 21.3481 20.7035 22 19.0625 22C17.4215 22 15.8477 21.3481 14.6873 20.1877C13.5269 19.0273 12.875 17.4535 12.875 15.8125ZM19.0625 6.875C16.6921 6.875 14.4188 7.81663 12.7427 9.49273C11.0666 11.1688 10.125 13.4421 10.125 15.8125C10.125 18.1829 11.0666 20.4562 12.7427 22.1323C14.4188 23.8084 16.6921 24.75 19.0625 24.75C21.4329 24.75 23.7062 23.8084 25.3823 22.1323C27.0584 20.4562 28 18.1829 28 15.8125C28 13.4421 27.0584 11.1688 25.3823 9.49273C23.7062 7.81663 21.4329 6.875 19.0625 6.875ZM28 27.5C28.6875 27.5037 29.3356 27.6219 29.9443 27.8547C28.6077 28.3002 27.4527 29.1472 26.625 30.25H10.125C9.39565 30.25 8.69618 30.5397 8.18046 31.0555C7.66473 31.5712 7.375 32.2707 7.375 33V33.2145L7.39425 33.4428C7.54348 34.761 8.01371 36.0225 8.76375 37.1167C10.103 39.0527 12.9108 41.25 19.0625 41.25C21.6833 41.25 23.699 40.8512 25.25 40.2435V42.625C25.25 42.801 25.2564 42.9752 25.2692 43.1475C23.5588 43.681 21.51 44 19.0625 44C12.1518 44 8.42825 41.47 6.5005 38.6815C5.48547 37.2026 4.85246 35.4954 4.658 33.7122C4.64231 33.5522 4.63131 33.3917 4.625 33.231V33C4.625 31.5413 5.20446 30.1424 6.23591 29.1109C7.26736 28.0795 8.66631 27.5 10.125 27.5H28ZM36.25 17.875C36.25 16.781 36.6846 15.7318 37.4582 14.9582C38.2318 14.1846 39.281 13.75 40.375 13.75C41.469 13.75 42.5182 14.1846 43.2918 14.9582C44.0654 15.7318 44.5 16.781 44.5 17.875C44.5 18.969 44.0654 20.0182 43.2918 20.7918C42.5182 21.5654 41.469 22 40.375 22C39.281 22 38.2318 21.5654 37.4582 20.7918C36.6846 20.0182 36.25 18.969 36.25 17.875ZM40.375 11C38.5516 11 36.803 11.7243 35.5136 13.0136C34.2243 14.303 33.5 16.0516 33.5 17.875C33.5 19.6984 34.2243 21.447 35.5136 22.7364C36.803 24.0257 38.5516 24.75 40.375 24.75C42.1984 24.75 43.947 24.0257 45.2364 22.7364C46.5257 21.447 47.25 19.6984 47.25 17.875C47.25 16.0516 46.5257 14.303 45.2364 13.0136C43.947 11.7243 42.1984 11 40.375 11ZM28 34.375C28 33.281 28.4346 32.2318 29.2082 31.4582C29.9818 30.6846 31.031 30.25 32.125 30.25H48.625C49.719 30.25 50.7682 30.6846 51.5418 31.4582C52.3154 32.2318 52.75 33.281 52.75 34.375V42.625C52.75 43.719 52.3154 44.7682 51.5418 45.5418C50.7682 46.3154 49.719 46.75 48.625 46.75H32.125C31.031 46.75 29.9818 46.3154 29.2082 45.5418C28.4346 44.7682 28 43.719 28 42.625V34.375ZM30.75 34.375V37.125C31.844 37.125 32.8932 36.6904 33.6668 35.9168C34.4404 35.1432 34.875 34.094 34.875 33H32.125C32.125 33.3647 31.9801 33.7144 31.7223 33.9723C31.4644 34.2301 31.1147 34.375 30.75 34.375ZM50 37.125V34.375C49.6353 34.375 49.2856 34.2301 49.0277 33.9723C48.7699 33.7144 48.625 33.3647 48.625 33H45.875C45.875 34.094 46.3096 35.1432 47.0832 35.9168C47.8568 36.6904 48.906 37.125 50 37.125ZM45.875 44H48.625C48.625 43.6353 48.7699 43.2856 49.0277 43.0277C49.2856 42.7699 49.6353 42.625 50 42.625V39.875C48.906 39.875 47.8568 40.3096 47.0832 41.0832C46.3096 41.8568 45.875 42.906 45.875 44ZM30.75 39.875V42.625C31.1147 42.625 31.4644 42.7699 31.7223 43.0277C31.9801 43.2856 32.125 43.6353 32.125 44H34.875C34.875 42.906 34.4404 41.8568 33.6668 41.0832C32.8932 40.3096 31.844 39.875 30.75 39.875ZM40.375 42.625C41.469 42.625 42.5182 42.1904 43.2918 41.4168C44.0654 40.6432 44.5 39.594 44.5 38.5C44.5 37.406 44.0654 36.3568 43.2918 35.5832C42.5182 34.8096 41.469 34.375 40.375 34.375C39.281 34.375 38.2318 34.8096 37.4582 35.5832C36.6846 36.3568 36.25 37.406 36.25 38.5C36.25 39.594 36.6846 40.6432 37.4582 41.4168C38.2318 42.1904 39.281 42.625 40.375 42.625Z" fill="white"/>
</svg>
