<svg width="24" height="24" viewBox="0 0 24 24" fill="none" xmlns="http://www.w3.org/2000/svg">
<path d="M10 5.49999C9.99985 4.73404 10.1952 3.98073 10.5676 3.31139C10.94 2.64205 11.477 2.07883 12.1279 1.67508C12.7788 1.27133 13.522 1.0404 14.2871 1.00416C15.0522 0.967915 15.8139 1.12756 16.5 1.46799C17.1861 1.12797 17.9476 0.968644 18.7124 1.00509C19.4773 1.04153 20.2201 1.27253 20.8708 1.67624C21.5214 2.07995 22.0583 2.643 22.4306 3.31212C22.8029 3.98123 22.9982 4.73428 22.9982 5.49999C22.9982 6.2657 22.8029 7.01874 22.4306 7.68786C22.0583 8.35697 21.5214 8.92003 20.8708 9.32373C20.2201 9.72744 19.4773 9.95845 18.7124 9.99489C17.9476 10.0313 17.1861 9.872 16.5 9.53199C15.8139 9.87241 15.0522 10.0321 14.2871 9.99582C13.522 9.95958 12.7788 9.72865 12.1279 9.32489C11.477 8.92114 10.94 8.35793 10.5676 7.68859C10.1952 7.01925 9.99985 6.26594 10 5.49999ZM18.25 7.98799C18.332 7.99599 18.4153 7.99999 18.5 7.99999C18.8384 7.99926 19.1731 7.92984 19.4839 7.79593C19.7946 7.66203 20.075 7.46643 20.3079 7.22099C20.5409 6.97554 20.7216 6.68536 20.8391 6.36803C20.9566 6.0507 21.0084 5.71281 20.9915 5.37485C20.9745 5.03689 20.8891 4.70588 20.7405 4.40188C20.5919 4.09789 20.3831 3.82723 20.1268 3.60631C19.8704 3.38539 19.5719 3.2188 19.2493 3.11664C18.9267 3.01448 18.5868 2.97888 18.25 3.01199C18.7392 3.74952 19.0001 4.61494 19 5.49999C19.0001 6.38503 18.7392 7.25045 18.25 7.98799ZM8.435 13.25C8.27081 13.2496 8.10814 13.2815 7.95629 13.3439C7.80444 13.4064 7.66638 13.4982 7.55 13.614L5.5 15.664V19.5H11.127L16.93 18.05L20.462 16.542C20.5823 16.477 20.6744 16.3698 20.7205 16.2411C20.7667 16.1124 20.7637 15.9712 20.7122 15.8445C20.6606 15.7178 20.5641 15.6147 20.4412 15.5548C20.3182 15.4949 20.1775 15.4825 20.046 15.52L20.026 15.525L13.614 17H10V15H13.125C13.3571 15 13.5796 14.9078 13.7437 14.7437C13.9078 14.5796 14 14.3571 14 14.125C14 13.8929 13.9078 13.6704 13.7437 13.5063C13.5796 13.3422 13.3571 13.25 13.125 13.25H8.435ZM15.987 14.402L19.539 13.585C19.9173 13.4855 20.3134 13.4741 20.6968 13.5515C21.0802 13.6289 21.4408 13.7932 21.7509 14.0317C22.0609 14.2702 22.3122 14.5766 22.4854 14.9273C22.6586 15.2781 22.7491 15.6638 22.75 16.055C22.7496 16.5298 22.6171 16.9952 22.3674 17.3991C22.1177 17.803 21.7606 18.1294 21.336 18.342L21.309 18.356L17.569 19.951L11.373 21.5H0V14.25H4.086L6.138 12.198C6.44034 11.8967 6.79907 11.6579 7.1937 11.4952C7.58834 11.3326 8.01116 11.2492 8.438 11.25H13.125C13.5259 11.2499 13.9225 11.3337 14.2891 11.496C14.6557 11.6583 14.9843 11.8955 15.2539 12.1923C15.5234 12.4892 15.7278 12.8391 15.8541 13.2196C15.9804 13.6002 16.0256 14.0029 15.987 14.402ZM3.5 16.25H2V19.5H3.5V16.25Z" fill="#FCFDFD"/>
</svg>
