<svg width="45" height="45" viewBox="0 0 45 45" fill="none" xmlns="http://www.w3.org/2000/svg">
<path d="M22.5007 39.2328L2.33398 33.7328L12.4045 31.0946M22.5007 39.2328L42.6673 33.7328M22.5007 39.2328V43.0113M2.33398 42.0946V33.962M42.6673 33.962V42.0946M28.9173 11.6136C28.9173 15.1575 27.8485 24.447 22.5007 24.447C17.1528 24.447 16.084 15.1666 16.084 11.6136C16.084 5.19698 22.5007 1.98865 22.5007 1.98865C22.5007 1.98865 28.9173 5.19698 28.9173 11.6136Z" stroke="#FCFDFD" stroke-width="1.5" stroke-linecap="round" stroke-linejoin="round"/>
<path d="M22.5007 11.3845C22.2575 11.3845 22.0244 11.2879 21.8525 11.116C21.6806 10.9441 21.584 10.7109 21.584 10.4678C21.584 10.2247 21.6806 9.99154 21.8525 9.81963C22.0244 9.64772 22.2575 9.55115 22.5007 9.55115M22.5007 11.3845C22.7438 11.3845 22.9769 11.2879 23.1488 11.116C23.3207 10.9441 23.4173 10.7109 23.4173 10.4678C23.4173 10.2247 23.3207 9.99154 23.1488 9.81963C22.9769 9.64772 22.7438 9.55115 22.5007 9.55115" stroke="#FCFDFD" stroke-width="1.5"/>
<path d="M18.8532 33.2818V31.4338C19.0002 30.5589 19.4569 29.766 20.14 29.1998C20.8231 28.6336 21.6869 28.3319 22.574 28.3497C23.461 28.3675 24.3121 28.7036 24.9719 29.2967C25.6317 29.8898 26.0563 30.7004 26.1682 31.5805V33.2818M18.2537 22.7952L16.7723 23.5377C15.9355 23.9834 15.1683 24.5491 14.4953 25.217C14.3344 25.3896 14.1262 25.5107 13.8966 25.5653C13.6671 25.6199 13.4266 25.6054 13.2052 25.5237C12.9839 25.4421 12.7916 25.2968 12.6526 25.1062C12.5135 24.9156 12.4339 24.6882 12.4237 24.4525C12.2677 23.0789 12.5609 21.6917 13.2592 20.4987C13.9575 19.3056 15.0235 18.3708 16.2975 17.8342M26.7493 22.7952L28.2307 23.5377C29.0685 23.9832 29.8348 24.5478 30.5077 25.217C30.6689 25.3887 30.8772 25.5091 31.1064 25.5632C31.3357 25.6172 31.5758 25.6026 31.7967 25.521C32.0177 25.4395 32.2098 25.2947 32.349 25.1046C32.4881 24.9146 32.5683 24.6878 32.5793 24.4525C32.7353 23.0789 32.4421 21.6917 31.7438 20.4987C31.0455 19.3056 29.9795 18.3708 28.7055 17.8342M42.6682 33.7328L32.5977 31.0947" stroke="#FCFDFD" stroke-width="1.5" stroke-linecap="round" stroke-linejoin="round"/>
</svg>
