<svg width="24" height="24" viewBox="0 0 24 24" fill="none" xmlns="http://www.w3.org/2000/svg">
<path d="M11.9993 2C12.185 2.0001 12.3669 2.05188 12.5248 2.14955C12.6827 2.24722 12.8103 2.38692 12.8933 2.553L21.8933 20.553C21.9776 20.7219 22.0123 20.9113 21.9935 21.0991C21.9747 21.2869 21.9031 21.4656 21.787 21.6145C21.6709 21.7633 21.515 21.8763 21.3374 21.9403C21.1598 22.0042 20.9677 22.0166 20.7833 21.976L11.9993 20.024L3.2163 21.976C3.03187 22.0169 2.83964 22.0046 2.66186 21.9408C2.48408 21.8769 2.32803 21.764 2.21178 21.6151C2.09553 21.4662 2.02383 21.2874 2.00499 21.0994C1.98614 20.9115 2.02092 20.722 2.1053 20.553L11.1053 2.553C11.1883 2.38692 11.3159 2.24722 11.4738 2.14955C11.6317 2.05188 11.8136 2.0001 11.9993 2ZM12.9993 18.198L19.1653 19.568L12.9993 7.236V18.198ZM10.9993 7.236L4.8333 19.568L10.9993 18.198V7.236Z" fill="#FCFDFD"/>
</svg>
