<svg width="45" height="45" viewBox="0 0 45 45" fill="none" xmlns="http://www.w3.org/2000/svg">
<path d="M6.54573 8.69316C8.67252 6.566 11.5251 5.32182 14.531 5.21029C17.5369 5.09876 20.4738 6.12812 22.7524 8.09183C25.0289 6.13139 27.962 5.10319 30.9643 5.21306C33.9666 5.32293 36.8166 6.56278 38.9438 8.68437C41.071 10.806 42.3183 13.6527 42.436 16.6548C42.5537 19.6568 41.5332 22.5925 39.5787 24.8742L25.3429 39.1558C24.6889 39.8101 23.8117 40.193 22.8872 40.2276C21.9627 40.2623 21.0593 39.9463 20.3581 39.3428L20.1564 39.1577L5.9224 24.8742C3.96896 22.5945 2.94796 19.6615 3.06353 16.6615C3.17909 13.6616 4.42271 10.8158 6.54573 8.69316ZM9.13807 11.2855C7.63884 12.7851 6.77463 14.8045 6.72479 16.9244C6.67495 19.0443 7.44331 21.1021 8.8704 22.6705L9.13807 22.9528L22.7506 36.5653L32.4727 26.8395L25.9919 20.3605L24.0486 22.3038C23.0173 23.3356 21.6183 23.9155 20.1595 23.9158C18.7007 23.9161 17.3015 23.337 16.2697 22.3057C15.238 21.2744 14.6581 19.8754 14.6578 18.4166C14.6574 16.9578 15.2366 15.5586 16.2679 14.5268L20.1216 10.6713C18.5881 9.447 16.6684 8.80935 14.7071 8.87285C12.7459 8.93636 10.8715 9.69686 9.4204 11.0178L9.13807 11.2855ZM24.6957 16.4702C25.0395 16.1265 25.5058 15.9334 25.9919 15.9334C26.478 15.9334 26.9443 16.1265 27.2881 16.4702L35.0651 24.2472L36.3631 22.9528C37.8874 21.4296 38.7552 19.3703 38.7809 17.2155C38.8066 15.0607 37.9882 12.9814 36.5006 11.4222C35.013 9.863 32.9744 8.94776 30.8208 8.87219C28.6672 8.79663 26.5694 9.56674 24.9762 11.0178L24.6957 11.2855L18.8621 17.1192C18.5443 17.4367 18.3542 17.8599 18.3278 18.3084C18.3015 18.7569 18.4407 19.1994 18.7191 19.552L18.8621 19.7115C19.1796 20.0293 19.6028 20.2194 20.0513 20.2457C20.4998 20.2721 20.9423 20.1329 21.2949 19.8545L21.4544 19.7115L24.6957 16.4702Z" fill="#FCFDFD"/>
</svg>
