<svg width="35" height="35" viewBox="0 0 35 35" fill="none" xmlns="http://www.w3.org/2000/svg">
<path d="M27.7083 15.3125V14.5833C27.7083 9.08395 27.7083 6.33353 25.9992 4.62582C24.29 2.91811 21.541 2.91666 16.0417 2.91666C10.5423 2.91666 7.79187 2.91666 6.08417 4.62582C4.37646 6.33499 4.375 9.08395 4.375 14.5833V21.1458C4.375 25.9394 4.375 28.3369 5.69917 29.9512C5.94222 30.2468 6.21153 30.5161 6.50708 30.7592C8.12292 32.0833 10.5175 32.0833 15.3125 32.0833M10.2083 10.2083H21.875M10.2083 16.0417H16.0417" stroke="#070707" stroke-width="2.1875" stroke-linecap="round" stroke-linejoin="round"/>
<path d="M26.25 26.9791L24.0625 26.1771V22.6041M17.5 25.5208C17.5 26.3826 17.6697 27.236 17.9995 28.0322C18.3293 28.8284 18.8127 29.5518 19.4221 30.1612C20.0315 30.7706 20.7549 31.254 21.5511 31.5838C22.3473 31.9136 23.2007 32.0833 24.0625 32.0833C24.9243 32.0833 25.7777 31.9136 26.5739 31.5838C27.3701 31.254 28.0935 30.7706 28.7029 30.1612C29.3123 29.5518 29.7957 28.8284 30.1255 28.0322C30.4553 27.236 30.625 26.3826 30.625 25.5208C30.625 23.7803 29.9336 22.1111 28.7029 20.8804C27.4722 19.6497 25.803 18.9583 24.0625 18.9583C22.322 18.9583 20.6528 19.6497 19.4221 20.8804C18.1914 22.1111 17.5 23.7803 17.5 25.5208Z" stroke="#070707" stroke-width="2.1875" stroke-linecap="round" stroke-linejoin="round"/>
</svg>
