<svg width="53" height="54" viewBox="0 0 53 54" fill="none" xmlns="http://www.w3.org/2000/svg">
<g clip-path="url(#clip0_269_7163)">
<path d="M35.3359 31.4167H38.6484V37.6442L44.0368 40.7579L42.3805 43.6287L35.3359 39.5654V31.4167ZM37.5443 27C34.6158 27 31.8073 28.1633 29.7366 30.234C27.6659 32.3047 26.5026 35.1132 26.5026 38.0417C26.5026 40.9701 27.6659 43.7786 29.7366 45.8493C31.8073 47.92 34.6158 49.0833 37.5443 49.0833C40.4727 49.0833 43.2812 47.92 45.3519 45.8493C47.4226 43.7786 48.5859 40.9701 48.5859 38.0417C48.5859 35.1132 47.4226 32.3047 45.3519 30.234C43.2812 28.1633 40.4727 27 37.5443 27ZM37.5443 22.5833C41.6441 22.5833 45.576 24.212 48.475 27.111C51.374 30.01 53.0026 33.9419 53.0026 38.0417C53.0026 42.1415 51.374 46.0734 48.475 48.9724C45.576 51.8714 41.6441 53.5 37.5443 53.5C31.383 53.5 26.0609 49.8783 23.5655 44.6667H2.21094V38.0417C2.21094 32.1675 13.9814 29.2083 19.8776 29.2083C21.2026 29.2083 22.8368 29.3629 24.5593 29.65C25.9597 27.4798 27.8822 25.6957 30.1508 24.4611C32.4194 23.2265 34.9615 22.5809 37.5443 22.5833ZM22.0859 38.0417C22.0859 36.4958 22.3068 34.9942 22.7264 33.625C21.7989 33.4704 20.8272 33.4042 19.8776 33.4042C13.3189 33.4042 6.40677 36.6283 6.40677 38.0417V40.4708H22.2847C22.1546 39.6676 22.0882 38.8554 22.0859 38.0417ZM19.8776 9.33333C22.2203 9.33333 24.4671 10.264 26.1237 11.9206C27.7803 13.5771 28.7109 15.8239 28.7109 18.1667C28.7109 20.5094 27.7803 22.7562 26.1237 24.4128C24.4671 26.0693 22.2203 27 19.8776 27C17.5349 27 15.2881 26.0693 13.6315 24.4128C11.9749 22.7562 11.0443 20.5094 11.0443 18.1667C11.0443 15.8239 11.9749 13.5771 13.6315 11.9206C15.2881 10.264 17.5349 9.33333 19.8776 9.33333ZM19.8776 13.5292C18.6477 13.5292 17.4681 14.0178 16.5984 14.8875C15.7287 15.7572 15.2401 16.9367 15.2401 18.1667C15.2401 19.3966 15.7287 20.5762 16.5984 21.4459C17.4681 22.3156 18.6477 22.8042 19.8776 22.8042C21.1075 22.8042 22.2871 22.3156 23.1568 21.4459C24.0265 20.5762 24.5151 19.3966 24.5151 18.1667C24.5151 16.9367 24.0265 15.7572 23.1568 14.8875C22.2871 14.0178 21.1075 13.5292 19.8776 13.5292Z" fill="white"/>
</g>
<defs>
<clipPath id="clip0_269_7163">
<rect width="53" height="53" fill="white" transform="translate(0 0.5)"/>
</clipPath>
</defs>
</svg>
