<svg width="40" height="41" viewBox="0 0 40 41" fill="none" xmlns="http://www.w3.org/2000/svg">
<g clip-path="url(#clip0_266_7096)">
<path d="M19.3408 0.853943C19.6133 0.801208 19.8945 0.801208 20.167 0.853943L37.7451 4.36957C38.7295 4.56293 39.4414 5.43304 39.4414 6.435C39.4414 7.43695 38.7295 8.30707 37.7451 8.50043L31.0039 9.85394V14.8725C31.0039 21.0864 25.9678 26.1225 19.7539 26.1225C13.54 26.1225 8.50391 21.0864 8.50391 14.8725V9.85394L4.28516 9.01019V14.7319L5.66505 21.6225C5.74415 22.0356 5.63868 22.4662 5.37501 22.7914C5.11133 23.1166 4.70704 23.31 4.28516 23.31H1.47266C1.05079 23.31 0.65528 23.1254 0.382819 22.7914C0.110358 22.4575 0.00488905 22.0356 0.0927797 21.6225L1.47266 14.7319V8.42133C0.637702 8.13129 0.0664125 7.34027 0.0664125 6.435C0.0664125 5.43304 0.778327 4.56293 1.7627 4.36957L19.3408 0.853943ZM9.90137 29.6118C10.8242 29.3129 11.8174 29.6469 12.4854 30.3588L18.7256 36.9946C19.2793 37.5834 20.2197 37.5834 20.7734 36.9946L27.0137 30.3588C27.6816 29.6469 28.6748 29.3129 29.5977 29.6118C35.3106 31.4487 39.4414 36.7924 39.4414 43.1118C39.4414 44.6059 38.2285 45.81 36.7432 45.81H2.76465C1.2793 45.81 0.0664125 44.5971 0.0664125 43.1118C0.0664125 36.7924 4.19727 31.4487 9.90137 29.6118Z" fill="white"/>
</g>
<defs>
<clipPath id="clip0_266_7096">
<rect width="39.38" height="39.38" fill="white" transform="translate(0.0625 0.809998)"/>
</clipPath>
</defs>
</svg>
