<svg width="24" height="24" viewBox="0 0 24 24" fill="none" xmlns="http://www.w3.org/2000/svg">
<path fill-rule="evenodd" clip-rule="evenodd" d="M15.5395 5.51C15.5395 7.44997 13.9595 9.02 12.0295 9.02C10.0895 9.02 8.51953 7.44997 8.51953 5.51C8.51953 3.56998 10.0895 2 12.0295 2C13.9695 2 15.5395 3.56998 15.5395 5.51ZM13.5395 5.51C13.5395 4.67998 12.8595 3.99997 12.0295 3.99997C11.1995 3.99997 10.5195 4.67998 10.5195 5.51C10.5195 6.33997 11.1995 7.01998 12.0295 7.01998C12.8595 7.01998 13.5395 6.33997 13.5395 5.51Z" fill="#FCFDFD"/>
<path d="M9.83984 15.48H9.88986V15.53H9.83984V15.48ZM14.2099 15.48H14.1598V15.53H14.2099V15.48ZM14.8099 15.49H14.7598V15.54H14.8099V15.49Z" fill="#FCFDFD"/>
<path fill-rule="evenodd" clip-rule="evenodd" d="M12.03 10.92L3 6.39996V17.48L12.03 22L21.06 17.48V6.39996L12.03 10.92ZM5.00002 9.62998L11.03 12.65V19.26L5.00002 16.24V9.62998ZM19.06 16.24L13.03 19.26V12.65L19.06 9.62998V16.24Z" fill="#FCFDFD"/>
</svg>
