<svg width="46" height="45" viewBox="0 0 46 45" fill="none" xmlns="http://www.w3.org/2000/svg">
<path d="M9.625 41.25C8.59375 41.25 7.71125 40.8831 6.9775 40.1494C6.24375 39.4156 5.87625 38.5325 5.875 37.5V28.9688L11.0312 23.1094L13.7031 25.7812L9.95313 30H35.5469L31.8906 25.875L34.5625 23.2031L39.625 28.9688V37.5C39.625 38.5312 39.2581 39.4144 38.5244 40.1494C37.7906 40.8844 36.9075 41.2513 35.875 41.25H9.625ZM9.625 37.5H35.875V33.75H9.625V37.5ZM20.1719 26.9531L13.5625 20.3438C12.8438 19.625 12.4925 18.7425 12.5087 17.6962C12.525 16.65 12.8919 15.7669 13.6094 15.0469L22.7969 5.85937C23.5156 5.14062 24.4062 4.76563 25.4688 4.73438C26.5312 4.70312 27.4219 5.04687 28.1406 5.76562L34.75 12.375C35.4688 13.0938 35.8438 13.9688 35.875 15C35.9062 16.0312 35.5625 16.9062 34.8438 17.625L25.4688 27C24.75 27.7188 23.8675 28.0706 22.8213 28.0556C21.775 28.0406 20.8919 27.6731 20.1719 26.9531ZM32.125 15.0469L25.5156 8.4375L16.2344 17.7188L22.8438 24.3281L32.125 15.0469Z" fill="white"/>
</svg>
